<svg xmlns="http://www.w3.org/2000/svg" width="1800" height="1100" viewBox="0 0 1800 1100">
<defs><marker id="arrow" markerWidth="10" markerHeight="10" refX="8" refY="3" orient="auto"><path d="M0,0 L0,6 L9,3 z" fill="context-stroke"/></marker></defs>
<rect width="100%" height="100%" fill="#FFFFFF"/>
<text x="48" y="58" font-family="Arial" font-size="34" font-weight="700" fill="#17324D">Gamification and Student Progression Framework</text>
<text x="48" y="91" font-family="Arial" font-size="18" fill="#5D7188">Teacher-configurable activity formats feed a shared XP, streak, badge and learning-journey model</text>
<rect x="70" y="160" width="330" height="145" rx="16" fill="#EAF2FF" stroke="#2563EB" stroke-width="2"/>
<rect x="70" y="160" width="8" height="145" rx="4" fill="#2563EB" stroke="#2563EB" stroke-width="2"/>
<text x="94" y="195" font-family="Arial, sans-serif" font-size="21" font-weight="700" fill="#17324D" text-anchor="start">Teacher-authored activity</text>
<text x="94" y="226" font-family="Arial, sans-serif" font-size="17" font-weight="400" fill="#5D7188" text-anchor="start">Choose format and configure content</text>
<text x="94" y="252" font-family="Arial, sans-serif" font-size="17" font-weight="400" fill="#5D7188" text-anchor="start">Common GameConfiguration</text>
<rect x="450" y="145" width="270" height="76" rx="14" fill="#FFFFFF" stroke="#078B83" stroke-width="2"/>
<text x="585" y="192" font-family="Arial, sans-serif" font-size="16" font-weight="700" fill="#17324D" text-anchor="middle">Match the Following</text>
<rect x="750" y="145" width="270" height="76" rx="14" fill="#FFFFFF" stroke="#078B83" stroke-width="2"/>
<text x="885" y="192" font-family="Arial, sans-serif" font-size="16" font-weight="700" fill="#17324D" text-anchor="middle">True or False</text>
<rect x="1050" y="145" width="270" height="76" rx="14" fill="#FFFFFF" stroke="#078B83" stroke-width="2"/>
<text x="1185" y="192" font-family="Arial, sans-serif" font-size="16" font-weight="700" fill="#17324D" text-anchor="middle">Fill in the Blank</text>
<rect x="1350" y="145" width="270" height="76" rx="14" fill="#FFFFFF" stroke="#078B83" stroke-width="2"/>
<text x="1485" y="192" font-family="Arial, sans-serif" font-size="16" font-weight="700" fill="#17324D" text-anchor="middle">Flash Cards</text>
<rect x="450" y="257" width="270" height="76" rx="14" fill="#FFFFFF" stroke="#078B83" stroke-width="2"/>
<text x="585" y="304" font-family="Arial, sans-serif" font-size="16" font-weight="700" fill="#17324D" text-anchor="middle">Word Scramble</text>
<rect x="750" y="257" width="270" height="76" rx="14" fill="#FFFFFF" stroke="#078B83" stroke-width="2"/>
<text x="885" y="304" font-family="Arial, sans-serif" font-size="16" font-weight="700" fill="#17324D" text-anchor="middle">Shoot the Answer</text>
<rect x="1050" y="257" width="270" height="76" rx="14" fill="#FFFFFF" stroke="#078B83" stroke-width="2"/>
<text x="1185" y="304" font-family="Arial, sans-serif" font-size="16" font-weight="700" fill="#17324D" text-anchor="middle">Balloon Pop</text>
<rect x="1350" y="257" width="270" height="76" rx="14" fill="#FFFFFF" stroke="#078B83" stroke-width="2"/>
<text x="1485" y="304" font-family="Arial, sans-serif" font-size="16" font-weight="700" fill="#17324D" text-anchor="middle">Treasure Hunt</text>
<line x1="400" y1="230" x2="430" y2="230" stroke="#2563EB" stroke-width="3" marker-end="url(#arrow)"/>
<line x1="430" y1="230" x2="430" y2="190" stroke="#2563EB" stroke-width="2"/>
<line x1="430" y1="190" x2="450" y2="190" stroke="#2563EB" stroke-width="3" marker-end="url(#arrow)"/>
<line x1="430" y1="190" x2="430" y2="300" stroke="#2563EB" stroke-width="2"/>
<line x1="430" y1="300" x2="450" y2="300" stroke="#2563EB" stroke-width="3" marker-end="url(#arrow)"/>
<rect x="70" y="540" width="400" height="150" rx="16" fill="#E7F7F4" stroke="#078B83" stroke-width="2"/>
<rect x="70" y="540" width="8" height="150" rx="4" fill="#078B83" stroke="#078B83" stroke-width="2"/>
<text x="94" y="575" font-family="Arial, sans-serif" font-size="21" font-weight="700" fill="#17324D" text-anchor="start">Activity result</text>
<text x="94" y="606" font-family="Arial, sans-serif" font-size="17" font-weight="400" fill="#5D7188" text-anchor="start">Completion + score</text>
<text x="94" y="632" font-family="Arial, sans-serif" font-size="17" font-weight="400" fill="#5D7188" text-anchor="start">Local-first progress record</text>
<text x="94" y="658" font-family="Arial, sans-serif" font-size="17" font-weight="400" fill="#5D7188" text-anchor="start">Reward event (when eligible)</text>
<rect x="650" y="520" width="440" height="170" rx="16" fill="#FFF4DD" stroke="#D98200" stroke-width="2"/>
<rect x="650" y="520" width="8" height="170" rx="4" fill="#D98200" stroke="#D98200" stroke-width="2"/>
<text x="674" y="555" font-family="Arial, sans-serif" font-size="21" font-weight="700" fill="#17324D" text-anchor="start">Progress and reward data</text>
<text x="674" y="586" font-family="Arial, sans-serif" font-size="17" font-weight="400" fill="#5D7188" text-anchor="start">XP ledger / accumulated XP</text>
<text x="674" y="612" font-family="Arial, sans-serif" font-size="17" font-weight="400" fill="#5D7188" text-anchor="start">Streak fields + badge records</text>
<text x="674" y="638" font-family="Arial, sans-serif" font-size="17" font-weight="400" fill="#5D7188" text-anchor="start">Stored locally; synchronized later</text>
<rect x="1270" y="450" width="440" height="145" rx="16" fill="#EAF2FF" stroke="#2563EB" stroke-width="2"/>
<rect x="1270" y="450" width="8" height="145" rx="4" fill="#2563EB" stroke="#2563EB" stroke-width="2"/>
<text x="1294" y="485" font-family="Arial, sans-serif" font-size="21" font-weight="700" fill="#17324D" text-anchor="start">Progression indicators</text>
<text x="1294" y="516" font-family="Arial, sans-serif" font-size="17" font-weight="400" fill="#5D7188" text-anchor="start">Level = floor(XP / 100) + 1</text>
<text x="1294" y="542" font-family="Arial, sans-serif" font-size="17" font-weight="400" fill="#5D7188" text-anchor="start">Displayed level grows each 100 XP</text>
<rect x="1270" y="625" width="440" height="145" rx="16" fill="#FFF0EF" stroke="#B64242" stroke-width="2"/>
<rect x="1270" y="625" width="8" height="145" rx="4" fill="#B64242" stroke="#B64242" stroke-width="2"/>
<text x="1294" y="660" font-family="Arial, sans-serif" font-size="21" font-weight="700" fill="#17324D" text-anchor="start">Streak continuity</text>
<text x="1294" y="691" font-family="Arial, sans-serif" font-size="16" font-weight="400" fill="#5D7188" text-anchor="start">EffectiveStreak = max(current, highest)</text>
<text x="1294" y="716" font-family="Arial, sans-serif" font-size="16" font-weight="400" fill="#5D7188" text-anchor="start">Retain the recorded high-water value</text>
<rect x="1270" y="800" width="440" height="145" rx="16" fill="#EAF7EF" stroke="#18834F" stroke-width="2"/>
<rect x="1270" y="800" width="8" height="145" rx="4" fill="#18834F" stroke="#18834F" stroke-width="2"/>
<text x="1294" y="835" font-family="Arial, sans-serif" font-size="21" font-weight="700" fill="#17324D" text-anchor="start">Learning Journey</text>
<text x="1294" y="866" font-family="Arial, sans-serif" font-size="16" font-weight="400" fill="#5D7188" text-anchor="start">Village → Farm → Forest → River</text>
<text x="1294" y="891" font-family="Arial, sans-serif" font-size="16" font-weight="400" fill="#5D7188" text-anchor="start">→ Mountain → Castle; milestone unlocks</text>
<line x1="470" y1="615" x2="650" y2="615" stroke="#078B83" stroke-width="3" marker-end="url(#arrow)"/>
<line x1="1090" y1="560" x2="1270" y2="520" stroke="#D98200" stroke-width="3" marker-end="url(#arrow)"/>
<line x1="1090" y1="605" x2="1270" y2="695" stroke="#D98200" stroke-width="3" marker-end="url(#arrow)"/>
<line x1="1090" y1="650" x2="1270" y2="870" stroke="#D98200" stroke-width="3" marker-end="url(#arrow)"/>
<rect x="70" y="985" width="1640" height="72" rx="14" fill="#F7F9FC" stroke="#E5EBF1" stroke-width="1"/>
<text x="95" y="1028" font-family="Arial, sans-serif" font-size="17" font-weight="700" fill="#17324D" text-anchor="start">Eight formats support different activity styles. The formulas shown are those stated in the manuscript.</text>
</svg>